<svg xmlns="http://www.w3.org/2000/svg" xmlns:xlink="http://www.w3.org/1999/xlink" width="1300" zoomAndPan="magnify" viewBox="0 0 974.88 187.499995" height="250" preserveAspectRatio="xMidYMid meet" version="1.0"><defs><g/></defs><g fill="#3486a3" fill-opacity="1"><g transform="translate(4.10493, 118.8358)"><g><path d="M 35.40625 -47 L 40.703125 -38.640625 L 15.8125 -24.09375 L 40.703125 -9.828125 L 35.21875 -1.1875 L 5.328125 -19.765625 L 5.328125 -28.359375 Z M 35.40625 -47 "/></g></g></g><g fill="#3486a3" fill-opacity="1"><g transform="translate(50.136578, 118.8358)"><g><path d="M 15.890625 -16.84375 C 16.171875 -14.613281 16.75 -12.816406 17.625 -11.453125 C 18.507812 -10.085938 19.640625 -9.085938 21.015625 -8.453125 C 22.398438 -7.828125 23.953125 -7.515625 25.671875 -7.515625 C 27.535156 -7.515625 29.335938 -7.820312 31.078125 -8.4375 C 32.816406 -9.050781 34.492188 -9.867188 36.109375 -10.890625 L 40.96875 -4.296875 C 39.050781 -2.660156 36.726562 -1.316406 34 -0.265625 C 31.28125 0.773438 28.179688 1.296875 24.703125 1.296875 C 20.046875 1.296875 16.144531 0.367188 13 -1.484375 C 9.851562 -3.335938 7.488281 -5.882812 5.90625 -9.125 C 4.320312 -12.375 3.53125 -16.109375 3.53125 -20.328125 C 3.53125 -24.347656 4.296875 -28 5.828125 -31.28125 C 7.367188 -34.570312 9.613281 -37.195312 12.5625 -39.15625 C 15.519531 -41.113281 19.132812 -42.09375 23.40625 -42.09375 C 27.289062 -42.09375 30.660156 -41.257812 33.515625 -39.59375 C 36.367188 -37.925781 38.582031 -35.53125 40.15625 -32.40625 C 41.726562 -29.289062 42.515625 -25.546875 42.515625 -21.171875 C 42.515625 -20.484375 42.492188 -19.742188 42.453125 -18.953125 C 42.410156 -18.160156 42.351562 -17.457031 42.28125 -16.84375 Z M 23.40625 -33.953125 C 21.226562 -33.953125 19.472656 -33.171875 18.140625 -31.609375 C 16.816406 -30.054688 16.015625 -27.566406 15.734375 -24.140625 L 30.6875 -24.140625 C 30.664062 -27.097656 30.09375 -29.472656 28.96875 -31.265625 C 27.84375 -33.054688 25.988281 -33.953125 23.40625 -33.953125 Z M 23.40625 -33.953125 "/></g></g></g><g fill="#3486a3" fill-opacity="1"><g transform="translate(96.168226, 118.8358)"><g><path d="M 21.71875 -7.359375 C 23.738281 -7.359375 25.367188 -7.675781 26.609375 -8.3125 C 27.847656 -8.957031 28.46875 -9.921875 28.46875 -11.203125 C 28.46875 -12.066406 28.222656 -12.789062 27.734375 -13.375 C 27.253906 -13.96875 26.320312 -14.535156 24.9375 -15.078125 C 23.550781 -15.617188 21.503906 -16.257812 18.796875 -17 C 16.316406 -17.664062 14.125 -18.507812 12.21875 -19.53125 C 10.3125 -20.550781 8.828125 -21.863281 7.765625 -23.46875 C 6.703125 -25.082031 6.171875 -27.09375 6.171875 -29.5 C 6.171875 -31.9375 6.847656 -34.097656 8.203125 -35.984375 C 9.566406 -37.878906 11.5625 -39.367188 14.1875 -40.453125 C 16.820312 -41.546875 20.046875 -42.09375 23.859375 -42.09375 C 27.492188 -42.09375 30.660156 -41.625 33.359375 -40.6875 C 36.054688 -39.75 38.390625 -38.566406 40.359375 -37.140625 L 35.53125 -30 C 33.84375 -31.050781 32.023438 -31.890625 30.078125 -32.515625 C 28.128906 -33.140625 26.171875 -33.453125 24.203125 -33.453125 C 22.234375 -33.453125 20.769531 -33.191406 19.8125 -32.671875 C 18.851562 -32.148438 18.375 -31.363281 18.375 -30.3125 C 18.375 -29.625 18.625 -29.03125 19.125 -28.53125 C 19.625 -28.03125 20.5625 -27.515625 21.9375 -26.984375 C 23.320312 -26.460938 25.347656 -25.816406 28.015625 -25.046875 C 30.640625 -24.304688 32.929688 -23.453125 34.890625 -22.484375 C 36.847656 -21.515625 38.363281 -20.21875 39.4375 -18.59375 C 40.507812 -16.96875 41.046875 -14.820312 41.046875 -12.15625 C 41.046875 -9.195312 40.164062 -6.710938 38.40625 -4.703125 C 36.644531 -2.691406 34.304688 -1.1875 31.390625 -0.1875 C 28.472656 0.800781 25.273438 1.296875 21.796875 1.296875 C 17.859375 1.296875 14.378906 0.734375 11.359375 -0.390625 C 8.335938 -1.515625 5.765625 -2.992188 3.640625 -4.828125 L 9.75 -11.65625 C 11.332031 -10.4375 13.125 -9.414062 15.125 -8.59375 C 17.132812 -7.769531 19.332031 -7.359375 21.71875 -7.359375 Z M 21.71875 -7.359375 "/></g></g></g><g fill="#3486a3" fill-opacity="1"><g transform="translate(142.199874, 118.8358)"><g><path d="M 36.25 -40.75 L 36.25 -11.8125 C 36.25 -5.9375 35.15625 -1.097656 32.96875 2.703125 C 30.789062 6.503906 27.546875 9.519531 23.234375 11.75 C 18.921875 13.988281 13.59375 15.738281 7.25 17 L 5.328125 7.75 C 9.453125 6.800781 12.90625 5.625 15.6875 4.21875 C 18.476562 2.8125 20.582031 0.898438 22 -1.515625 C 23.425781 -3.929688 24.140625 -7.109375 24.140625 -11.046875 L 24.140625 -32.453125 L 9.484375 -32.453125 L 9.484375 -40.75 Z M 28.390625 -62.078125 C 30.484375 -62.078125 32.195312 -61.425781 33.53125 -60.125 C 34.863281 -58.820312 35.53125 -57.195312 35.53125 -55.25 C 35.53125 -53.300781 34.863281 -51.664062 33.53125 -50.34375 C 32.195312 -49.03125 30.484375 -48.375 28.390625 -48.375 C 26.265625 -48.375 24.53125 -49.03125 23.1875 -50.34375 C 21.84375 -51.664062 21.171875 -53.300781 21.171875 -55.25 C 21.171875 -57.195312 21.84375 -58.820312 23.1875 -60.125 C 24.53125 -61.425781 26.265625 -62.078125 28.390625 -62.078125 Z M 28.390625 -62.078125 "/></g></g></g><g fill="#3486a3" fill-opacity="1"><g transform="translate(188.231521, 118.8358)"><g/></g></g><g fill="#3486a3" fill-opacity="1"><g transform="translate(234.263156, 118.8358)"><g><path d="M 30.265625 -40.75 L 30.265625 -8.28125 L 40.625 -8.28125 L 40.625 0 L 6.59375 0 L 6.59375 -8.28125 L 18.140625 -8.28125 L 18.140625 -32.453125 L 6.984375 -32.453125 L 6.984375 -40.75 Z M 22.9375 -62.078125 C 25.039062 -62.078125 26.753906 -61.425781 28.078125 -60.125 C 29.410156 -58.820312 30.078125 -57.195312 30.078125 -55.25 C 30.078125 -53.300781 29.410156 -51.664062 28.078125 -50.34375 C 26.753906 -49.03125 25.039062 -48.375 22.9375 -48.375 C 20.820312 -48.375 19.09375 -49.03125 17.75 -50.34375 C 16.40625 -51.664062 15.734375 -53.300781 15.734375 -55.25 C 15.734375 -57.195312 16.40625 -58.820312 17.75 -60.125 C 19.09375 -61.425781 20.820312 -62.078125 22.9375 -62.078125 Z M 22.9375 -62.078125 "/></g></g></g><g fill="#3486a3" fill-opacity="1"><g transform="translate(280.29479, 118.8358)"><g><path d="M 28.546875 -58.203125 L 40.671875 -56.9375 L 40.671875 0 L 29.921875 0 L 29.3125 -4.484375 C 28.1875 -2.898438 26.6875 -1.539062 24.8125 -0.40625 C 22.945312 0.726562 20.6875 1.296875 18.03125 1.296875 C 14.65625 1.296875 11.859375 0.390625 9.640625 -1.421875 C 7.429688 -3.234375 5.78125 -5.769531 4.6875 -9.03125 C 3.601562 -12.289062 3.0625 -16.109375 3.0625 -20.484375 C 3.0625 -24.679688 3.710938 -28.40625 5.015625 -31.65625 C 6.328125 -34.90625 8.195312 -37.457031 10.625 -39.3125 C 13.050781 -41.164062 15.941406 -42.09375 19.296875 -42.09375 C 21.109375 -42.09375 22.796875 -41.769531 24.359375 -41.125 C 25.921875 -40.488281 27.316406 -39.554688 28.546875 -38.328125 Z M 22.5625 -33.21875 C 20.457031 -33.21875 18.765625 -32.226562 17.484375 -30.25 C 16.210938 -28.269531 15.578125 -24.988281 15.578125 -20.40625 C 15.578125 -17.0625 15.84375 -14.460938 16.375 -12.609375 C 16.914062 -10.753906 17.660156 -9.453125 18.609375 -8.703125 C 19.554688 -7.960938 20.644531 -7.59375 21.875 -7.59375 C 23.226562 -7.59375 24.457031 -8.015625 25.5625 -8.859375 C 26.675781 -9.703125 27.671875 -10.851562 28.546875 -12.3125 L 28.546875 -29.890625 C 27.703125 -30.941406 26.804688 -31.757812 25.859375 -32.34375 C 24.910156 -32.925781 23.8125 -33.21875 22.5625 -33.21875 Z M 22.5625 -33.21875 "/></g></g></g><g fill="#3486a3" fill-opacity="1"><g transform="translate(326.326425, 118.8358)"><g><path d="M 40.4375 -36.671875 L 40.4375 -27.203125 L 5.609375 -27.203125 L 5.609375 -36.671875 Z M 40.4375 -20.53125 L 40.4375 -11.125 L 5.609375 -11.125 L 5.609375 -20.53125 Z M 40.4375 -20.53125 "/></g></g></g><g fill="#3486a3" fill-opacity="1"><g transform="translate(372.358059, 118.8358)"><g><path d="M 11.359375 -35.484375 L 9.90625 -56.9375 L 21.375 -56.9375 L 19.953125 -35.484375 Z M 26.015625 -35.484375 L 24.59375 -56.9375 L 36.140625 -56.9375 L 34.6875 -35.484375 Z M 26.015625 -35.484375 "/></g></g></g><g fill="#3486a3" fill-opacity="1"><g transform="translate(418.389694, 118.8358)"><g><path d="M 27.9375 -42.09375 C 31.488281 -42.09375 34.347656 -41.207031 36.515625 -39.4375 C 38.691406 -37.675781 40.285156 -35.179688 41.296875 -31.953125 C 42.304688 -28.734375 42.8125 -24.910156 42.8125 -20.484375 C 42.8125 -16.296875 42.195312 -12.554688 40.96875 -9.265625 C 39.75 -5.972656 37.972656 -3.390625 35.640625 -1.515625 C 33.316406 0.359375 30.488281 1.296875 27.15625 1.296875 C 23.195312 1.296875 19.976562 -0.117188 17.5 -2.953125 L 17.5 15.734375 L 5.375 17 L 5.375 -40.75 L 16.109375 -40.75 L 16.65625 -36.1875 C 18.3125 -38.300781 20.125 -39.8125 22.09375 -40.71875 C 24.0625 -41.632812 26.007812 -42.09375 27.9375 -42.09375 Z M 24.171875 -33.15625 C 22.765625 -33.15625 21.523438 -32.726562 20.453125 -31.875 C 19.378906 -31.03125 18.394531 -29.882812 17.5 -28.4375 L 17.5 -11.234375 C 18.34375 -9.984375 19.226562 -9.0625 20.15625 -8.46875 C 21.09375 -7.882812 22.203125 -7.59375 23.484375 -7.59375 C 25.628906 -7.59375 27.300781 -8.570312 28.5 -10.53125 C 29.707031 -12.488281 30.3125 -15.753906 30.3125 -20.328125 C 30.3125 -23.710938 30.066406 -26.332031 29.578125 -28.1875 C 29.097656 -30.039062 28.394531 -31.332031 27.46875 -32.0625 C 26.550781 -32.789062 25.453125 -33.15625 24.171875 -33.15625 Z M 24.171875 -33.15625 "/></g></g></g><g fill="#3486a3" fill-opacity="1"><g transform="translate(464.421328, 118.8358)"><g><path d="M 23.015625 -42.09375 C 27.210938 -42.09375 30.78125 -41.195312 33.71875 -39.40625 C 36.664062 -37.613281 38.914062 -35.097656 40.46875 -31.859375 C 42.03125 -28.628906 42.8125 -24.835938 42.8125 -20.484375 C 42.8125 -15.960938 42.023438 -12.066406 40.453125 -8.796875 C 38.878906 -5.535156 36.625 -3.035156 33.6875 -1.296875 C 30.75 0.429688 27.191406 1.296875 23.015625 1.296875 C 18.878906 1.296875 15.332031 0.441406 12.375 -1.265625 C 9.414062 -2.984375 7.148438 -5.460938 5.578125 -8.703125 C 4.003906 -11.953125 3.21875 -15.851562 3.21875 -20.40625 C 3.21875 -24.726562 4.003906 -28.515625 5.578125 -31.765625 C 7.148438 -35.015625 9.414062 -37.546875 12.375 -39.359375 C 15.332031 -41.179688 18.878906 -42.09375 23.015625 -42.09375 Z M 23.015625 -33.15625 C 20.535156 -33.15625 18.703125 -32.132812 17.515625 -30.09375 C 16.328125 -28.0625 15.734375 -24.832031 15.734375 -20.40625 C 15.734375 -15.90625 16.328125 -12.644531 17.515625 -10.625 C 18.703125 -8.601562 20.535156 -7.59375 23.015625 -7.59375 C 25.492188 -7.59375 27.328125 -8.601562 28.515625 -10.625 C 29.710938 -12.644531 30.3125 -15.929688 30.3125 -20.484375 C 30.3125 -24.890625 29.710938 -28.101562 28.515625 -30.125 C 27.328125 -32.144531 25.492188 -33.15625 23.015625 -33.15625 Z M 23.015625 -33.15625 "/></g></g></g><g fill="#3486a3" fill-opacity="1"><g transform="translate(510.452963, 118.8358)"><g><path d="M 5.75 0 L 5.75 -8.140625 L 11.125 -8.140625 L 11.125 -32.6875 L 5.75 -32.6875 L 5.75 -40.75 L 20.375 -40.75 L 22.59375 -31.578125 C 24.050781 -35.078125 25.910156 -37.679688 28.171875 -39.390625 C 30.441406 -41.109375 33.210938 -41.96875 36.484375 -41.96875 C 37.867188 -41.96875 39.097656 -41.859375 40.171875 -41.640625 C 41.242188 -41.429688 42.253906 -41.132812 43.203125 -40.75 L 39.515625 -30.734375 C 38.773438 -30.941406 38.035156 -31.09375 37.296875 -31.1875 C 36.554688 -31.289062 35.738281 -31.34375 34.84375 -31.34375 C 32.175781 -31.34375 29.835938 -30.253906 27.828125 -28.078125 C 25.828125 -25.910156 24.300781 -23.148438 23.25 -19.796875 L 23.25 -8.140625 L 31.3125 -8.140625 L 31.3125 0 Z M 33.34375 -23.71875 L 33.34375 -35.609375 L 35.140625 -40.75 L 43.203125 -40.75 L 40.9375 -23.71875 Z M 33.34375 -23.71875 "/></g></g></g><g fill="#3486a3" fill-opacity="1"><g transform="translate(556.484597, 118.8358)"><g><path d="M 42.046875 -2.375 C 40.460938 -1.351562 38.546875 -0.488281 36.296875 0.21875 C 34.046875 0.9375 31.515625 1.296875 28.703125 1.296875 C 23.378906 1.296875 19.425781 -0.0625 16.84375 -2.78125 C 14.257812 -5.507812 12.96875 -9.210938 12.96875 -13.890625 L 12.96875 -32.375 L 4.40625 -32.375 L 4.40625 -40.75 L 12.96875 -40.75 L 12.96875 -49.578125 L 25.09375 -51.03125 L 25.09375 -40.75 L 38.21875 -40.75 L 37.03125 -32.375 L 25.09375 -32.375 L 25.09375 -13.890625 C 25.09375 -11.867188 25.550781 -10.421875 26.46875 -9.546875 C 27.394531 -8.679688 28.867188 -8.25 30.890625 -8.25 C 32.316406 -8.25 33.625 -8.421875 34.8125 -8.765625 C 36.007812 -9.109375 37.078125 -9.550781 38.015625 -10.09375 Z M 42.046875 -2.375 "/></g></g></g><g fill="#3486a3" fill-opacity="1"><g transform="translate(602.516232, 118.8358)"><g><path d="M 30.265625 -40.75 L 30.265625 -8.28125 L 40.625 -8.28125 L 40.625 0 L 6.59375 0 L 6.59375 -8.28125 L 18.140625 -8.28125 L 18.140625 -32.453125 L 6.984375 -32.453125 L 6.984375 -40.75 Z M 22.9375 -62.078125 C 25.039062 -62.078125 26.753906 -61.425781 28.078125 -60.125 C 29.410156 -58.820312 30.078125 -57.195312 30.078125 -55.25 C 30.078125 -53.300781 29.410156 -51.664062 28.078125 -50.34375 C 26.753906 -49.03125 25.039062 -48.375 22.9375 -48.375 C 20.820312 -48.375 19.09375 -49.03125 17.75 -50.34375 C 16.40625 -51.664062 15.734375 -53.300781 15.734375 -55.25 C 15.734375 -57.195312 16.40625 -58.820312 17.75 -60.125 C 19.09375 -61.425781 20.820312 -62.078125 22.9375 -62.078125 Z M 22.9375 -62.078125 "/></g></g></g><g fill="#3486a3" fill-opacity="1"><g transform="translate(648.547866, 118.8358)"><g><path d="M 31.3125 -58.203125 C 34.28125 -58.203125 36.898438 -57.960938 39.171875 -57.484375 C 41.453125 -57.015625 43.484375 -56.394531 45.265625 -55.625 L 41.9375 -47.734375 C 40.53125 -48.265625 39.082031 -48.648438 37.59375 -48.890625 C 36.113281 -49.140625 34.644531 -49.265625 33.1875 -49.265625 C 30.78125 -49.265625 29.054688 -48.828125 28.015625 -47.953125 C 26.984375 -47.085938 26.46875 -45.644531 26.46875 -43.625 L 26.46875 -38.171875 L 39.75 -38.171875 L 38.40625 -29.765625 L 26.46875 -29.765625 L 26.46875 0 L 14.421875 0 L 14.421875 -29.765625 L 5.875 -29.765625 L 5.875 -38.171875 L 14.421875 -38.171875 L 14.421875 -44.078125 C 14.421875 -46.765625 15.0625 -49.171875 16.34375 -51.296875 C 17.625 -53.421875 19.515625 -55.101562 22.015625 -56.34375 C 24.523438 -57.582031 27.625 -58.203125 31.3125 -58.203125 Z M 31.3125 -58.203125 "/></g></g></g><g fill="#3486a3" fill-opacity="1"><g transform="translate(694.579501, 118.8358)"><g><path d="M 23.015625 -42.09375 C 27.210938 -42.09375 30.78125 -41.195312 33.71875 -39.40625 C 36.664062 -37.613281 38.914062 -35.097656 40.46875 -31.859375 C 42.03125 -28.628906 42.8125 -24.835938 42.8125 -20.484375 C 42.8125 -15.960938 42.023438 -12.066406 40.453125 -8.796875 C 38.878906 -5.535156 36.625 -3.035156 33.6875 -1.296875 C 30.75 0.429688 27.191406 1.296875 23.015625 1.296875 C 18.878906 1.296875 15.332031 0.441406 12.375 -1.265625 C 9.414062 -2.984375 7.148438 -5.460938 5.578125 -8.703125 C 4.003906 -11.953125 3.21875 -15.851562 3.21875 -20.40625 C 3.21875 -24.726562 4.003906 -28.515625 5.578125 -31.765625 C 7.148438 -35.015625 9.414062 -37.546875 12.375 -39.359375 C 15.332031 -41.179688 18.878906 -42.09375 23.015625 -42.09375 Z M 23.015625 -33.15625 C 20.535156 -33.15625 18.703125 -32.132812 17.515625 -30.09375 C 16.328125 -28.0625 15.734375 -24.832031 15.734375 -20.40625 C 15.734375 -15.90625 16.328125 -12.644531 17.515625 -10.625 C 18.703125 -8.601562 20.535156 -7.59375 23.015625 -7.59375 C 25.492188 -7.59375 27.328125 -8.601562 28.515625 -10.625 C 29.710938 -12.644531 30.3125 -15.929688 30.3125 -20.484375 C 30.3125 -24.890625 29.710938 -28.101562 28.515625 -30.125 C 27.328125 -32.144531 25.492188 -33.15625 23.015625 -33.15625 Z M 23.015625 -33.15625 "/></g></g></g><g fill="#3486a3" fill-opacity="1"><g transform="translate(740.611135, 118.8358)"><g><path d="M 26.625 -56.9375 L 26.625 -12.8125 C 26.625 -11.175781 27.085938 -10.003906 28.015625 -9.296875 C 28.953125 -8.597656 30.242188 -8.25 31.890625 -8.25 C 32.929688 -8.25 33.9375 -8.367188 34.90625 -8.609375 C 35.882812 -8.859375 36.796875 -9.148438 37.640625 -9.484375 L 40.546875 -1.375 C 39.171875 -0.664062 37.507812 -0.046875 35.5625 0.484375 C 33.625 1.023438 31.363281 1.296875 28.78125 1.296875 C 23.863281 1.296875 20.253906 -0.113281 17.953125 -2.9375 C 15.648438 -5.757812 14.5 -9.550781 14.5 -14.3125 L 14.5 -48.65625 L 2.5 -48.65625 L 2.5 -56.9375 Z M 26.625 -56.9375 "/></g></g></g><g fill="#3486a3" fill-opacity="1"><g transform="translate(786.64277, 118.8358)"><g><path d="M 30.265625 -40.75 L 30.265625 -8.28125 L 40.625 -8.28125 L 40.625 0 L 6.59375 0 L 6.59375 -8.28125 L 18.140625 -8.28125 L 18.140625 -32.453125 L 6.984375 -32.453125 L 6.984375 -40.75 Z M 22.9375 -62.078125 C 25.039062 -62.078125 26.753906 -61.425781 28.078125 -60.125 C 29.410156 -58.820312 30.078125 -57.195312 30.078125 -55.25 C 30.078125 -53.300781 29.410156 -51.664062 28.078125 -50.34375 C 26.753906 -49.03125 25.039062 -48.375 22.9375 -48.375 C 20.820312 -48.375 19.09375 -49.03125 17.75 -50.34375 C 16.40625 -51.664062 15.734375 -53.300781 15.734375 -55.25 C 15.734375 -57.195312 16.40625 -58.820312 17.75 -60.125 C 19.09375 -61.425781 20.820312 -62.078125 22.9375 -62.078125 Z M 22.9375 -62.078125 "/></g></g></g><g fill="#3486a3" fill-opacity="1"><g transform="translate(832.674404, 118.8358)"><g><path d="M 23.015625 -42.09375 C 27.210938 -42.09375 30.78125 -41.195312 33.71875 -39.40625 C 36.664062 -37.613281 38.914062 -35.097656 40.46875 -31.859375 C 42.03125 -28.628906 42.8125 -24.835938 42.8125 -20.484375 C 42.8125 -15.960938 42.023438 -12.066406 40.453125 -8.796875 C 38.878906 -5.535156 36.625 -3.035156 33.6875 -1.296875 C 30.75 0.429688 27.191406 1.296875 23.015625 1.296875 C 18.878906 1.296875 15.332031 0.441406 12.375 -1.265625 C 9.414062 -2.984375 7.148438 -5.460938 5.578125 -8.703125 C 4.003906 -11.953125 3.21875 -15.851562 3.21875 -20.40625 C 3.21875 -24.726562 4.003906 -28.515625 5.578125 -31.765625 C 7.148438 -35.015625 9.414062 -37.546875 12.375 -39.359375 C 15.332031 -41.179688 18.878906 -42.09375 23.015625 -42.09375 Z M 23.015625 -33.15625 C 20.535156 -33.15625 18.703125 -32.132812 17.515625 -30.09375 C 16.328125 -28.0625 15.734375 -24.832031 15.734375 -20.40625 C 15.734375 -15.90625 16.328125 -12.644531 17.515625 -10.625 C 18.703125 -8.601562 20.535156 -7.59375 23.015625 -7.59375 C 25.492188 -7.59375 27.328125 -8.601562 28.515625 -10.625 C 29.710938 -12.644531 30.3125 -15.929688 30.3125 -20.484375 C 30.3125 -24.890625 29.710938 -28.101562 28.515625 -30.125 C 27.328125 -32.144531 25.492188 -33.15625 23.015625 -33.15625 Z M 23.015625 -33.15625 "/></g></g></g><g fill="#3486a3" fill-opacity="1"><g transform="translate(878.706039, 118.8358)"><g><path d="M 11.359375 -35.484375 L 9.90625 -56.9375 L 21.375 -56.9375 L 19.953125 -35.484375 Z M 26.015625 -35.484375 L 24.59375 -56.9375 L 36.140625 -56.9375 L 34.6875 -35.484375 Z M 26.015625 -35.484375 "/></g></g></g><g fill="#3486a3" fill-opacity="1"><g transform="translate(924.737724, 118.8358)"><g><path d="M 10.703125 -47 L 40.703125 -28.4375 L 40.703125 -19.765625 L 10.8125 -1.1875 L 5.328125 -9.4375 L 30.265625 -24.09375 L 5.328125 -38.296875 Z M 10.703125 -47 "/></g></g></g></svg>