<svg xmlns="http://www.w3.org/2000/svg" xmlns:xlink="http://www.w3.org/1999/xlink" width="800" zoomAndPan="magnify" viewBox="0 0 600 374.999991" height="500" preserveAspectRatio="xMidYMid meet" version="1.0"><defs><g/></defs><g fill="#3486a3" fill-opacity="1"><g transform="translate(-21.262132, 291.549846)"><g><path d="M 62.421875 -87.53125 C 63.046875 -72.289062 65.976562 -59.828125 71.21875 -50.140625 C 76.46875 -40.453125 83.40625 -33.328125 92.03125 -28.765625 C 100.65625 -24.210938 110.023438 -21.9375 120.140625 -21.9375 C 130.265625 -21.9375 139.421875 -23.429688 147.609375 -26.421875 C 155.796875 -29.421875 164.195312 -33.859375 172.8125 -39.734375 L 187.625 -18.9375 C 178.375 -11.6875 167.84375 -6 156.03125 -1.875 C 144.226562 2.25 132.140625 4.3125 119.765625 4.3125 C 100.648438 4.3125 84.34375 0 70.84375 -8.625 C 57.351562 -17.25 47.078125 -29.273438 40.015625 -44.703125 C 32.953125 -60.140625 29.421875 -78.039062 29.421875 -98.40625 C 29.421875 -118.394531 32.984375 -136.132812 40.109375 -151.625 C 47.234375 -167.125 57.226562 -179.3125 70.09375 -188.1875 C 82.96875 -197.0625 98.15625 -201.5 115.65625 -201.5 C 132.269531 -201.5 146.570312 -197.59375 158.5625 -189.78125 C 170.5625 -181.96875 179.78125 -170.84375 186.21875 -156.40625 C 192.65625 -141.976562 195.875 -124.769531 195.875 -104.78125 C 195.875 -101.40625 195.8125 -98.25 195.6875 -95.3125 C 195.5625 -92.375 195.375 -89.78125 195.125 -87.53125 Z M 116.03125 -175.625 C 101.40625 -175.625 89.1875 -170.4375 79.375 -160.0625 C 69.570312 -149.695312 63.984375 -133.644531 62.609375 -111.90625 L 165.5 -111.90625 C 165.125 -133.019531 160.5 -148.914062 151.625 -159.59375 C 142.757812 -170.28125 130.894531 -175.625 116.03125 -175.625 Z M 116.03125 -175.625 "/></g></g></g><g fill="#3486a3" fill-opacity="1"><g transform="translate(203.665627, 291.549846)"><g><path d="M 104.78125 -21.75 C 119.894531 -21.75 131.859375 -24.585938 140.671875 -30.265625 C 149.484375 -35.953125 153.890625 -43.546875 153.890625 -53.046875 C 153.890625 -59.046875 152.796875 -64.226562 150.609375 -68.59375 C 148.421875 -72.96875 143.953125 -76.90625 137.203125 -80.40625 C 130.453125 -83.90625 120.082031 -87.40625 106.09375 -90.90625 C 92.46875 -94.28125 80.625 -98.1875 70.5625 -102.625 C 60.507812 -107.0625 52.703125 -112.835938 47.140625 -119.953125 C 41.578125 -127.078125 38.796875 -136.328125 38.796875 -147.703125 C 38.796875 -158.816406 41.953125 -168.40625 48.265625 -176.46875 C 54.578125 -184.53125 63.351562 -190.71875 74.59375 -195.03125 C 85.84375 -199.34375 98.90625 -201.5 113.78125 -201.5 C 129.644531 -201.5 143.476562 -199.40625 155.28125 -195.21875 C 167.09375 -191.03125 177.125 -185.875 185.375 -179.75 L 171.5 -158.390625 C 164.007812 -163.503906 155.765625 -167.71875 146.765625 -171.03125 C 137.765625 -174.34375 126.894531 -176 114.15625 -176 C 98.65625 -176 87.65625 -173.59375 81.15625 -168.78125 C 74.65625 -163.976562 71.40625 -157.765625 71.40625 -150.140625 C 71.40625 -144.390625 73 -139.609375 76.1875 -135.796875 C 79.375 -131.984375 84.78125 -128.546875 92.40625 -125.484375 C 100.03125 -122.421875 110.523438 -119.082031 123.890625 -115.46875 C 136.765625 -112.09375 147.976562 -108.03125 157.53125 -103.28125 C 167.09375 -98.53125 174.5625 -92.28125 179.9375 -84.53125 C 185.3125 -76.78125 188 -66.785156 188 -54.546875 C 188 -40.546875 184 -29.203125 176 -20.515625 C 168.007812 -11.835938 157.671875 -5.53125 144.984375 -1.59375 C 132.296875 2.34375 118.894531 4.3125 104.78125 4.3125 C 86.90625 4.3125 71.6875 1.71875 59.125 -3.46875 C 46.570312 -8.65625 36.046875 -14.9375 27.546875 -22.3125 L 45.546875 -43.109375 C 53.296875 -36.734375 62.195312 -31.578125 72.25 -27.640625 C 82.3125 -23.710938 93.15625 -21.75 104.78125 -21.75 Z M 104.78125 -21.75 "/></g></g></g><g fill="#3486a3" fill-opacity="1"><g transform="translate(428.593387, 291.549846)"><g><path d="M 166.8125 -197.375 L 166.8125 -31.671875 C 166.8125 -9.679688 161.875 8.710938 152 23.515625 C 142.132812 38.328125 127.828125 50.226562 109.078125 59.21875 C 90.335938 68.21875 67.660156 74.96875 41.046875 79.46875 L 35.796875 55.109375 C 55.296875 51.859375 72.539062 46.984375 87.53125 40.484375 C 102.53125 33.984375 114.242188 25.078125 122.671875 13.765625 C 131.109375 2.460938 135.328125 -11.992188 135.328125 -29.609375 L 135.328125 -172.4375 L 53.234375 -172.4375 L 53.234375 -197.375 Z M 137.390625 -289.78125 C 144.390625 -289.78125 150.015625 -287.65625 154.265625 -283.40625 C 158.515625 -279.15625 160.640625 -273.96875 160.640625 -267.84375 C 160.640625 -261.46875 158.515625 -256.125 154.265625 -251.8125 C 150.015625 -247.507812 144.390625 -245.359375 137.390625 -245.359375 C 130.640625 -245.359375 125.203125 -247.507812 121.078125 -251.8125 C 116.960938 -256.125 114.90625 -261.46875 114.90625 -267.84375 C 114.90625 -273.96875 116.960938 -279.15625 121.078125 -283.40625 C 125.203125 -287.65625 130.640625 -289.78125 137.390625 -289.78125 Z M 137.390625 -289.78125 "/></g></g></g></svg>