<svg xmlns="http://www.w3.org/2000/svg" xmlns:xlink="http://www.w3.org/1999/xlink" width="1300" zoomAndPan="magnify" viewBox="0 0 974.88 187.499995" height="250" preserveAspectRatio="xMidYMid meet" version="1.0"><defs><g/></defs><g fill="#3486a3" fill-opacity="1"><g transform="translate(212.47826, 143.539665)"><g><path d="M 70.515625 -93.578125 L 81.046875 -76.921875 L 31.46875 -47.96875 L 81.046875 -19.5625 L 70.125 -2.375 L 10.625 -39.34375 L 10.625 -56.453125 Z M 70.515625 -93.578125 "/></g></g></g><g fill="#3486a3" fill-opacity="1"><g transform="translate(304.133653, 143.539665)"><g><path d="M 23.21875 17.109375 L 4.359375 8.484375 L 68.59375 -124.828125 L 87.3125 -116.1875 Z M 23.21875 17.109375 "/></g></g></g><g fill="#3486a3" fill-opacity="1"><g transform="translate(395.789047, 143.539665)"><g><path d="M 31.625 -33.53125 C 32.1875 -29.101562 33.34375 -25.523438 35.09375 -22.796875 C 36.851562 -20.078125 39.109375 -18.09375 41.859375 -16.84375 C 44.609375 -15.59375 47.691406 -14.96875 51.109375 -14.96875 C 54.828125 -14.96875 58.414062 -15.578125 61.875 -16.796875 C 65.34375 -18.023438 68.679688 -19.65625 71.890625 -21.6875 L 81.578125 -8.5625 C 77.765625 -5.300781 73.144531 -2.625 67.71875 -0.53125 C 62.289062 1.550781 56.117188 2.59375 49.203125 2.59375 C 39.929688 2.59375 32.160156 0.75 25.890625 -2.9375 C 19.628906 -6.632812 14.921875 -11.710938 11.765625 -18.171875 C 8.609375 -24.640625 7.03125 -32.078125 7.03125 -40.484375 C 7.03125 -48.484375 8.554688 -55.753906 11.609375 -62.296875 C 14.660156 -68.835938 19.128906 -74.054688 25.015625 -77.953125 C 30.898438 -81.847656 38.09375 -83.796875 46.59375 -83.796875 C 54.332031 -83.796875 61.039062 -82.140625 66.71875 -78.828125 C 72.40625 -75.523438 76.8125 -70.765625 79.9375 -64.546875 C 83.070312 -58.335938 84.640625 -50.878906 84.640625 -42.171875 C 84.640625 -40.796875 84.597656 -39.316406 84.515625 -37.734375 C 84.441406 -36.160156 84.332031 -34.757812 84.1875 -33.53125 Z M 46.59375 -67.609375 C 42.269531 -67.609375 38.78125 -66.050781 36.125 -62.9375 C 33.476562 -59.832031 31.875 -54.867188 31.3125 -48.046875 L 61.109375 -48.046875 C 61.054688 -53.953125 59.910156 -58.6875 57.671875 -62.25 C 55.429688 -65.820312 51.738281 -67.609375 46.59375 -67.609375 Z M 46.59375 -67.609375 "/></g></g></g><g fill="#3486a3" fill-opacity="1"><g transform="translate(487.444441, 143.539665)"><g><path d="M 43.234375 -14.671875 C 47.253906 -14.671875 50.5 -15.304688 52.96875 -16.578125 C 55.445312 -17.847656 56.6875 -19.757812 56.6875 -22.3125 C 56.6875 -24.039062 56.203125 -25.488281 55.234375 -26.65625 C 54.265625 -27.832031 52.40625 -28.953125 49.65625 -30.015625 C 46.90625 -31.085938 42.832031 -32.363281 37.4375 -33.84375 C 32.488281 -35.164062 28.117188 -36.84375 24.328125 -38.875 C 20.535156 -40.914062 17.582031 -43.539062 15.46875 -46.75 C 13.351562 -49.957031 12.296875 -53.957031 12.296875 -58.75 C 12.296875 -63.582031 13.644531 -67.882812 16.34375 -71.65625 C 19.039062 -75.425781 23.015625 -78.390625 28.265625 -80.546875 C 33.515625 -82.710938 39.929688 -83.796875 47.515625 -83.796875 C 54.742188 -83.796875 61.046875 -82.863281 66.421875 -81 C 71.796875 -79.144531 76.441406 -76.796875 80.359375 -73.953125 L 70.734375 -59.734375 C 67.378906 -61.828125 63.765625 -63.492188 59.890625 -64.734375 C 56.015625 -65.984375 52.117188 -66.609375 48.203125 -66.609375 C 44.285156 -66.609375 41.367188 -66.085938 39.453125 -65.046875 C 37.546875 -64.003906 36.59375 -62.4375 36.59375 -60.34375 C 36.59375 -58.96875 37.085938 -57.785156 38.078125 -56.796875 C 39.078125 -55.804688 40.953125 -54.785156 43.703125 -53.734375 C 46.453125 -52.691406 50.472656 -51.410156 55.765625 -49.890625 C 61.015625 -48.410156 65.585938 -46.703125 69.484375 -44.765625 C 73.378906 -42.828125 76.394531 -40.238281 78.53125 -37 C 80.664062 -33.769531 81.734375 -29.507812 81.734375 -24.21875 C 81.734375 -18.3125 79.976562 -13.359375 76.46875 -9.359375 C 72.957031 -5.359375 68.296875 -2.363281 62.484375 -0.375 C 56.679688 1.601562 50.316406 2.59375 43.390625 2.59375 C 35.546875 2.59375 28.617188 1.472656 22.609375 -0.765625 C 16.597656 -3.003906 11.476562 -5.957031 7.25 -9.625 L 19.40625 -23.21875 C 22.5625 -20.78125 26.140625 -18.742188 30.140625 -17.109375 C 34.140625 -15.484375 38.503906 -14.671875 43.234375 -14.671875 Z M 43.234375 -14.671875 "/></g></g></g><g fill="#3486a3" fill-opacity="1"><g transform="translate(579.099835, 143.539665)"><g><path d="M 72.1875 -81.125 L 72.1875 -23.53125 C 72.1875 -11.8125 70.007812 -2.171875 65.65625 5.390625 C 61.300781 12.953125 54.832031 18.957031 46.25 23.40625 C 37.664062 27.863281 27.0625 31.34375 14.4375 33.84375 L 10.625 15.4375 C 18.820312 13.550781 25.695312 11.207031 31.25 8.40625 C 36.800781 5.601562 40.988281 1.796875 43.8125 -3.015625 C 46.632812 -7.828125 48.046875 -14.15625 48.046875 -22 L 48.046875 -64.625 L 18.875 -64.625 L 18.875 -81.125 Z M 56.53125 -123.59375 C 60.707031 -123.59375 64.117188 -122.296875 66.765625 -119.703125 C 69.410156 -117.109375 70.734375 -113.875 70.734375 -110 C 70.734375 -106.132812 69.410156 -102.890625 66.765625 -100.265625 C 64.117188 -97.640625 60.707031 -96.328125 56.53125 -96.328125 C 52.300781 -96.328125 48.847656 -97.640625 46.171875 -100.265625 C 43.503906 -102.890625 42.171875 -106.132812 42.171875 -110 C 42.171875 -113.875 43.503906 -117.109375 46.171875 -119.703125 C 48.847656 -122.296875 52.300781 -123.59375 56.53125 -123.59375 Z M 56.53125 -123.59375 "/></g></g></g><g fill="#3486a3" fill-opacity="1"><g transform="translate(670.755203, 143.539665)"><g><path d="M 21.3125 -93.578125 L 81.046875 -56.609375 L 81.046875 -39.34375 L 21.546875 -2.375 L 10.625 -18.796875 L 60.265625 -47.96875 L 10.625 -76.234375 Z M 21.3125 -93.578125 "/></g></g></g></svg>