<svg xmlns="http://www.w3.org/2000/svg" xmlns:xlink="http://www.w3.org/1999/xlink" width="1000" zoomAndPan="magnify" viewBox="0 0 750 749.999995" height="1000" preserveAspectRatio="xMidYMid meet" version="1.0"><path fill="#505050" d="M 588.125 161.953125 C 466.25 40.089844 271.207031 37.5625 152.464844 156.304688 C 48.175781 260.59375 37.453125 423.746094 118.9375 544.46875 L 63.359375 694.722656 L 208.585938 633.125 C 329.023438 712.453125 490.347656 701.042969 593.773438 597.617188 C 712.515625 478.871094 709.988281 283.828125 588.125 161.953125 Z M 588.125 161.953125 " fill-opacity="1" fill-rule="nonzero"/><path fill="#ffffff" d="M 520.179688 447.761719 C 548.710938 464.949219 554.28125 463.667969 554.28125 481.082031 C 554.28125 496.988281 517.074219 548.5 474.96875 548.535156 C 413.328125 548.496094 345.988281 510.574219 293.113281 459.140625 C 241.679688 406.269531 203.753906 338.925781 203.722656 277.285156 C 203.722656 235.148438 255.265625 197.972656 271.171875 197.972656 C 288.585938 197.972656 287.304688 203.542969 304.492188 232.074219 C 314.0625 247.949219 336.769531 277.796875 332.464844 288.933594 C 326.304688 304.792969 288.984375 323.4375 288.984375 334.796875 C 289.015625 372.675781 379.574219 463.238281 417.457031 463.269531 C 428.785156 463.238281 447.425781 425.902344 463.316406 419.789062 C 474.457031 415.484375 504.304688 438.191406 520.179688 447.761719 Z M 520.179688 447.761719 " fill-opacity="1" fill-rule="nonzero"/></svg>