<svg xmlns="http://www.w3.org/2000/svg" xmlns:xlink="http://www.w3.org/1999/xlink" width="1000" zoomAndPan="magnify" viewBox="0 0 750 749.999995" height="1000" preserveAspectRatio="xMidYMid meet" version="1.0"><defs><clipPath id="81c428c764"><path d="M 76.574219 30.902344 L 673.574219 30.902344 L 673.574219 719.402344 L 76.574219 719.402344 Z M 76.574219 30.902344 " clip-rule="nonzero"/></clipPath></defs><g clip-path="url(#81c428c764)"><path fill="#ffffff" d="M 575.984375 199.46875 L 442.488281 43.707031 C 441.410156 41.503906 439.960938 39.460938 438.171875 37.671875 C 433.882812 33.332031 428.007812 30.902344 421.90625 30.902344 L 99.722656 30.902344 C 87.058594 30.902344 76.777344 41.183594 76.777344 53.851562 L 76.777344 696.449219 C 76.777344 709.121094 87.058594 719.402344 99.722656 719.402344 L 329.179688 719.402344 C 341.847656 719.402344 352.125 709.121094 352.125 696.449219 C 352.125 683.78125 341.847656 673.5 329.179688 673.5 L 122.667969 673.5 C 122.667969 673.5 122.667969 76.800781 122.667969 76.800781 C 122.667969 76.800781 398.820312 76.800781 398.820312 76.800781 C 398.820312 76.800781 398.019531 214.363281 398.019531 214.363281 C 397.972656 220.46875 400.382812 226.34375 404.695312 230.679688 C 409.007812 235.019531 414.859375 237.449219 420.964844 237.449219 L 535.691406 237.449219 C 535.691406 237.449219 535.691406 306.300781 535.691406 306.300781 C 535.691406 318.96875 545.972656 329.25 558.636719 329.25 C 571.304688 329.25 581.582031 318.96875 581.582031 306.300781 L 581.582031 214.5 C 581.582031 208.761719 579.472656 203.507812 575.984375 199.46875 Z M 489.800781 352.199219 C 388.496094 352.199219 306.234375 434.476562 306.234375 535.800781 C 306.234375 637.125 388.496094 719.402344 489.800781 719.402344 C 591.105469 719.402344 673.367188 637.125 673.367188 535.800781 C 673.367188 434.476562 591.105469 352.199219 489.800781 352.199219 Z M 489.800781 398.101562 C 565.773438 398.101562 627.476562 459.8125 627.476562 535.800781 C 627.476562 611.789062 565.773438 673.5 489.800781 673.5 C 413.828125 673.5 352.125 611.789062 352.125 535.800781 C 352.125 459.8125 413.828125 398.101562 489.800781 398.101562 Z M 466.855469 572.199219 L 437.1875 542.527344 C 428.238281 533.574219 413.691406 533.574219 404.742188 542.527344 C 395.792969 551.476562 395.792969 566.027344 404.742188 574.976562 L 473.578125 643.828125 C 482.527344 652.800781 497.074219 652.800781 506.023438 643.828125 L 574.859375 574.976562 C 583.808594 566.027344 583.808594 551.476562 574.859375 542.527344 C 565.910156 533.574219 551.363281 533.574219 542.414062 542.527344 L 512.746094 572.199219 L 512.746094 444 C 512.746094 431.332031 502.46875 421.050781 489.800781 421.050781 C 477.136719 421.050781 466.855469 431.332031 466.855469 444 Z M 168.5625 466.949219 L 260.34375 466.949219 C 273.011719 466.949219 283.289062 456.667969 283.289062 444 C 283.289062 431.332031 273.011719 421.050781 260.34375 421.050781 L 168.5625 421.050781 C 155.894531 421.050781 145.617188 431.332031 145.617188 444 C 145.617188 456.667969 155.894531 466.949219 168.5625 466.949219 Z M 168.5625 375.152344 L 352.125 375.152344 C 364.792969 375.152344 375.074219 364.871094 375.074219 352.199219 C 375.074219 339.53125 364.792969 329.25 352.125 329.25 L 168.5625 329.25 C 155.894531 329.25 145.617188 339.53125 145.617188 352.199219 C 145.617188 364.871094 155.894531 375.152344 168.5625 375.152344 Z M 168.5625 283.351562 L 306.234375 283.351562 C 318.902344 283.351562 329.179688 273.070312 329.179688 260.402344 C 329.179688 247.734375 318.902344 237.449219 306.234375 237.449219 L 168.5625 237.449219 C 155.894531 237.449219 145.617188 247.734375 145.617188 260.402344 C 145.617188 273.070312 155.894531 283.351562 168.5625 283.351562 Z M 444.046875 191.550781 L 508.753906 191.550781 L 444.484375 116.574219 Z M 444.046875 191.550781 " fill-opacity="1" fill-rule="evenodd"/></g></svg>